#!OML:ASF I:\Random Stuff\random\construction\7_22_03\Session 2\subj1.ASF
:FULLY-SPECIFIED
:DEGREES
745
root 3.88599 17.681 -12.7394 38.2077 -4.3092 -10.2412
lowerback 46.4016 -6.06591 -5.45882
upperback 14.229 -10.372 -9.35661
thorax -6.04676 -4.5117 -2.92176
lowerneck -13.4687 -4.61091 -14.5061
upperneck 31.1442 -4.94674 7.54915
head 13.306 -2.93919 4.72706
rclavicle -3.49861e-014 -1.51076e-014
rhumerus -14.1017 24.5904 -58.9314
rradius 129.922
rwrist -10.7028
rhand -50.9731 29.6079
rfingers 7.12502
rthumb -23.5228 1.02622
lclavicle -3.49861e-014 -1.51076e-014
lhumerus 33.7239 -50.1776 44.5453
lradius 116.802
lwrist 38.2285
lhand -27.2472 -458.437
lfingers 7.12502
lthumb -180.659 -308.416
rfemur -62.1716 -8.23597 41.6769
rtibia 33.4427
rfoot -10.8627 7.98541
rtoes -57.7556
lfemur -57.9958 10.7544 5.88859
ltibia 37.9379
lfoot -13.6702 3.41156
ltoes -62.4508
746
root 3.88713 17.6691 -12.7364 38.089 -4.12573 -10.1591
lowerback 46.5437 -6.05705 -5.25242
upperback 14.2901 -10.2553 -9.19095
thorax -6.00493 -4.45973 -2.89502
lowerneck -13.3271 -4.7771 -14.8515
upperneck 31.0978 -5.10208 7.55973
head 13.2957 -3.04098 4.76644
rclavicle -6.36111e-014 -3.06128e-014
rhumerus -14.3273 24.3918 -58.5269
rradius 130.044
rwrist -10.728
rhand -51.1051 29.7464
rfingers 7.12502
rthumb -23.6495 1.18102
lclavicle -6.36111e-014 -3.06128e-014
lhumerus 34.6647 -50.6071 44.5052
lradius 116.666
lwrist 37.5736
lhand -27.2887 -458.657
lfingers 7.12502
lthumb -180.699 -308.636
rfemur -62.4208 -8.96921 42.2363
rtibia 33.7765
rfoot -11.1666 8.66669
rtoes -57.5697
lfemur -58.0985 10.6658 5.83637
ltibia 38.1266
lfoot -13.7558 3.21424
ltoes -62.4114
747
root 3.88675 17.6735 -12.7333 37.959 -3.98467 -10.1133
lowerback 46.7409 -6.1124 -5.21541
upperback 14.3501 -10.3002 -9.15943
thorax -5.98587 -4.47689 -2.85735
lowerneck -13.3097 -4.8201 -14.8143
upperneck 31.0768 -5.12777 7.41986
head 13.2829 -3.06257 4.69818
rclavicle 1.17681e-013 3.77691e-014
rhumerus -14.2736 24.473 -58.3887
rradius 130.121
rwrist -10.7272
rhand -51.2584 29.7886
rfingers 7.12502
rthumb -23.7965 1.24233
lclavicle 1.17681e-013 3.77691e-014
lhumerus 35.4075 -51.0232 44.2371
lradius 116.633
lwrist 38.6477
lhand -24.8307 -464.85
lfingers 7.12502
lthumb -178.325 -314.823
rfemur -62.3845 -9.07704 42.1981
rtibia 33.9515
rfoot -11.3202 8.56523
rtoes -57.5793
lfemur -58.0723 10.5985 5.80249
ltibia 38.1887
lfoot -13.7842 3.07733
ltoes -62.412
748
root 3.8843 17.6767 -12.7291 37.8956 -3.94163 -10.1112
lowerback 46.871 -6.16563 -5.27492
upperback 14.3965 -10.3902 -9.19854
thorax -5.96721 -4.5151 -2.8303
lowerneck -13.2641 -4.84492 -14.6649
upperneck 30.9771 -5.13126 7.18537
head 13.22 -3.0713 4.57295
rclavicle 1.17681e-013 5.56597e-015
rhumerus -14.0918 24.6652 -58.3601
rradius 130.145
rwrist -10.7298
rhand -51.4068 29.9674
rfingers 7.12502
rthumb -23.9387 1.43966
lclavicle 1.17681e-013 5.56597e-015
lhumerus 35.927 -51.2736 44.0304
lradius 116.636
lwrist 40.0482
lhand -23.145 -467.579
lfingers 7.12502
lthumb -176.697 -317.533
rfemur -62.3126 -9.06067 42.1386
rtibia 34.0073
rfoot -11.3342 8.45242
rtoes -57.5262
lfemur -58.0132 10.5934 5.80103
ltibia 38.1924
lfoot -13.7868 3.00446
ltoes -62.3736
749
root 3.88289 17.6791 -12.7256 37.8876 -3.92181 -10.1275
lowerback 46.9467 -6.27444 -5.25586
upperback 14.4564 -10.5155 -9.29959
thorax -5.94872 -4.56675 -2.89279
lowerneck -13.3653 -4.87792 -14.4469
upperneck 30.9884 -5.13693 6.9238
head 13.2327 -3.07788 4.42773
rclavicle -6.36111e-015 4.37326e-015
rhumerus -13.878 24.824 -58.3578
rradius 130.158
rwrist -10.7412
rhand -51.4994 30.1961
rfingers 7.12502
rthumb -24.0276 1.68007
lclavicle -6.36111e-015 4.37326e-015
lhumerus 36.5748 -51.5072 43.493
lradius 116.932
lwrist 42.1073
lhand -23.0603 -467.554
lfingers 7.12502
lthumb -176.615 -317.507
rfemur -62.2677 -9.04855 42.1447
rtibia 33.9784
rfoot -11.2939 8.36662
rtoes -57.4697
lfemur -57.997 10.6311 5.79874
ltibia 38.1717
lfoot -13.7547 2.94148
ltoes -62.3234
